<svg xmlns="http://www.w3.org/2000/svg" xmlns:xlink="http://www.w3.org/1999/xlink" width="400" height="176.201" viewBox="0 0 400 176.201">
  <defs>
    <clipPath id="clip-path">
      <rect id="Rectángulo_344655" data-name="Rectángulo 344655" width="257.147" height="172.201" fill="none"/>
    </clipPath>
    <clipPath id="clip-path-2">
      <rect id="Rectángulo_344657" data-name="Rectángulo 344657" width="71.311" height="61.131" fill="none"/>
    </clipPath>
    <clipPath id="clip-path-3">
      <rect id="Rectángulo_344663" data-name="Rectángulo 344663" width="72.732" height="47.893" fill="#60cb28"/>
    </clipPath>
  </defs>
  <g id="Grupo_1013937" data-name="Grupo 1013937" transform="translate(-285 -8115.799)">
    <path id="Sustracción_4" data-name="Sustracción 4" d="M8810.813,11871H8428.188a191.71,191.71,0,0,1,39.113-96.379,193.531,193.531,0,0,1,50.958-45.88,192.329,192.329,0,0,1,230.032,20.686,193.2,193.2,0,0,1,42.048,54.272,191.224,191.224,0,0,1,20.475,67.3Z" transform="translate(-8142 -3584)" fill="#fdfde3"/>
    <g id="Elipse_4877" data-name="Elipse 4877" transform="translate(285 8282)" fill="#636363" stroke="#707070" stroke-width="1" opacity="0.37">
      <ellipse cx="200" cy="5" rx="200" ry="5" stroke="none"/>
      <ellipse cx="200" cy="5" rx="199.5" ry="4.5" fill="none"/>
    </g>
    <g id="Grupo_1013930" data-name="Grupo 1013930" transform="translate(352 8115.799)">
      <g id="Grupo_1013929" data-name="Grupo 1013929" clip-path="url(#clip-path)">
        <path id="Trazado_599925" data-name="Trazado 599925" d="M808.671,23.645l2.046,2.63c-.365,2.311-1.917,4.457-1.677,6.916-1.111-1.1-1.428-3.1-1.609-4.574-.21-1.709-.275-3.8,1.24-4.973" transform="translate(-583.923 -17.102)" fill="#442d22"/>
        <path id="Trazado_599926" data-name="Trazado 599926" d="M799.053,144.691c-.193-1.717-.346-3.116-.341-3.138.082-.315-.517-21.282-1.817-26.482-1.539-6.155-1.105-12.664-1.052-16.646,1.255-1.945,7.338-5.659,8.287-7.037l1.637-3.989c.832,1.457,6.03,2.608,8.654,2.928,1.989.243,8.6,3.33,10.845,5.078,2.759,2.149-.237,42.788-.9,49.285Z" transform="translate(-575.552 -63.215)" fill="#fff"/>
        <path id="Trazado_599927" data-name="Trazado 599927" d="M824.592,75.972c.607,1.294,3.208,1.168,4.6,1.651,2.877-1.662,5.657-1.6,8.068-4.3-1.144-1.474-.96-10.255-1.441-11.783-.157-.5-1.26,5.715-1.54,4.961a9.468,9.468,0,0,1-.86-3.458L824.431,70.6c.563,1.209.006,2.919-.022,4.253a2.517,2.517,0,0,0,.183,1.119" transform="translate(-596.282 -44.492)" fill="#f3b98a"/>
        <path id="Trazado_599928" data-name="Trazado 599928" d="M824.875,71.21a4.643,4.643,0,0,0,4.595.814c3.5-1.126,7.167-4.086,6.973-7.854-.485-1.306-2.68-4.056-2.562-4.767L824.9,66.957c.563,1.209.006,2.919-.022,4.253" transform="translate(-596.62 -42.966)" fill="#e69c72"/>
        <path id="Trazado_599929" data-name="Trazado 599929" d="M837.107,119.547c.1-.659.351.847.3,1.172a22.282,22.282,0,0,1-1.7,2.891,23.379,23.379,0,0,1-2.24-3.945Z" transform="translate(-602.829 -86.347)" fill="#2d1414"/>
        <path id="Trazado_599930" data-name="Trazado 599930" d="M838.043,129.268l2.568,35.507-2.269,2.137-1.663-2.479.892-35.159Z" transform="translate(-605.158 -93.498)" fill="#2d1414"/>
        <path id="Trazado_599931" data-name="Trazado 599931" d="M823.008,96.747c.265,1.86,2.237,4.371,4.3,4.68,1.763-.032,7.573-4.094,7.815-6.292,0,0,1.183.661,1.969,1.128-.553.934-4.611,9.86-5.24,10.506-1.269-.845-3.24-3.09-4.416-4.059a31.12,31.12,0,0,0-3.923,3.584c-2.307-2.75-.5-9.547-.5-9.547" transform="translate(-594.784 -68.81)" fill="#d6ced8"/>
        <path id="Trazado_599932" data-name="Trazado 599932" d="M792.813,366.618h2.29c.578-3.22,1.4-7.924,2.349-13.46,3.268-18.989,8.129-47.748,10.423-59.785.877,1.763,2.653,13.626,4.38,27.611,2.083,16.852,4.1,36.783,4.388,45.826l2.421-.191c3.927-18.272,4.759-87.244,3.629-92.3,0,0-11.156,1.64-16.285,1.384a52.81,52.81,0,0,1-9.873-1.667c-1.24,7.184-4.318,64.883-3.723,92.58" transform="translate(-573.375 -198.208)" fill="#292929"/>
        <path id="Trazado_599933" data-name="Trazado 599933" d="M809.776,383.2c3.268-18.989,8.129-47.748,10.423-59.784.877,1.763,2.653,13.626,4.38,27.611l.179-.4c0-5.488-1.379-29.54-1.9-30.743a12.36,12.36,0,0,0,1.468-2.866c-1.285.688-4.693,2.193-4.693,2.193s-3.591-2.308-5.369-3.635c1.126,1.226,3.712,5.352,3.573,6.584-.265,2.363-7.764,55.374-7.95,59.5-.023.528-.078,1.036-.109,1.541" transform="translate(-585.699 -228.255)" fill="#1e1e1e"/>
        <path id="Trazado_599934" data-name="Trazado 599934" d="M844.682,143.127s6.129,20.774,6.264,23.458a59.5,59.5,0,0,0,9.742-.508c1.684-.178.957-.249,2.652-.346-.785-6.7-1.582-11.634-2.063-16.442a84.414,84.414,0,0,1-.45-9.273c0-.529.013-1.065.029-1.614.215-7.835,2.8-20.332,3.654-23.821.928-3.773,2.573-6.872,1.687-10.612-.49-2.06-3.313-2.436-9.433-4.879a18.09,18.09,0,0,1-4.706-2.689c-.462-.278-7.376,46.726-7.376,46.726" transform="translate(-610.946 -69.725)" fill="#42799b"/>
        <path id="Trazado_599935" data-name="Trazado 599935" d="M782.213,169.288c.284-5.555,2.192-16.847,2.192-22.505,0-9.941-7.9-32.221-4.965-33.858,3.285-1.836,7.212-4.9,10.382-6.15l7.2,43.856s-5.718,19.33-5.882,22.469a44.85,44.85,0,0,1-6.7-.355c-2.723-.266-2.384-.318-2.224-3.457" transform="translate(-563.286 -77.229)" fill="#42799b"/>
        <path id="Trazado_599936" data-name="Trazado 599936" d="M880.654,607.217c1,1.235,2.559,2.278,3.058,3.849-1.743.633-4.041.188-5.828-.022.151-1.121.246-2.9.484-3.828Z" transform="translate(-634.961 -439.191)" fill="#fff"/>
        <path id="Trazado_599937" data-name="Trazado 599937" d="M780.747,607.217c-1,1.235-4.371,2.276-4.869,3.847,1.743.633,5.853.19,7.639-.019-.151-1.121-.246-2.9-.484-3.828Z" transform="translate(-561.182 -439.191)" fill="#fff"/>
        <path id="Trazado_599938" data-name="Trazado 599938" d="M844.679,142.208c3.9-25.721,11.992-39.2,11.992-39.2a36.1,36.1,0,0,1-2.991-3.077,33.9,33.9,0,0,1,4.232-1.163,67.226,67.226,0,0,0-6.633-3.633c-.462-.278-6.7,38.747-6.6,47.077" transform="translate(-610.943 -68.806)" fill="#52a3cc"/>
        <path id="Trazado_599939" data-name="Trazado 599939" d="M816.67,145.783c0-4.958-10.045-37.946-10.045-37.946a36.064,36.064,0,0,0,2.992-3.077c-1.372-.595-2.507-.3-3.664-1.261.024-.024,5.27-3.7,5.27-3.7.153,1.538,6.045,39.911,5.447,45.981" transform="translate(-582.934 -72.185)" fill="#52a3cc"/>
        <path id="Trazado_599940" data-name="Trazado 599940" d="M807.842,52.749c.513-2.224-2.843-5.427-3.775-2.564a4.655,4.655,0,0,0,1.34,4.09c1.1.8,2.094-.079,2.7-.084Z" transform="translate(-581.503 -35.479)" fill="#f3b98a"/>
        <path id="Trazado_599941" data-name="Trazado 599941" d="M807.773,52.973l.043.061c.215-.242.855-.1,1.125.226.336.409.18.619.015.962-.175.365-.734,1.884.38,1.283,1.563-.843-.747-4.215-1.563-2.532" transform="translate(-584.251 -37.979)" fill="#e69c72"/>
        <path id="Trazado_599942" data-name="Trazado 599942" d="M813.914,30.565a31.519,31.519,0,0,1-.5-10.993c.273-2.987,1.631-7.292,3.578-8.485,4.044-2.477,7.291-.745,10.588,2.614.785,13.124.418,12.615.4,14.676-.043,4.66-6.664,6.24-8.224,6.272-5.881.12-5.386-2.167-5.841-4.084" transform="translate(-588.156 -7.173)" fill="#f3b98a"/>
        <path id="Trazado_599943" data-name="Trazado 599943" d="M846.892,59.427l1.358.339c-.034.451-.4.586-.639.769a1.545,1.545,0,0,1-1.182.295,1.8,1.8,0,0,1-1.623-1.15,14.087,14.087,0,0,1,2.087-.253" transform="translate(-611.035 -42.981)" fill="#e69c72"/>
        <path id="Trazado_599944" data-name="Trazado 599944" d="M844.819,54.874l.871.01h.014l1.713.022h.02l.823.011a1.848,1.848,0,0,0-.56-1.651,1.906,1.906,0,0,0-.517-.412,1.011,1.011,0,0,0-.479-.134,1.42,1.42,0,0,0-1.164.57c-.047.058-.092.119-.134.183v0a5.94,5.94,0,0,0-.586,1.4" transform="translate(-611.045 -38.131)" fill="#fff"/>
        <path id="Trazado_599945" data-name="Trazado 599945" d="M846.935,53.472v0a8.032,8.032,0,0,0,.285,1.41h.014l1.713.022h.02a6.258,6.258,0,0,0,.262-1.64,1.9,1.9,0,0,0-.518-.412,1.011,1.011,0,0,0-.479-.134,1.419,1.419,0,0,0-1.164.57c-.047.058-.092.119-.134.183" transform="translate(-612.576 -38.131)" fill="#30241b"/>
        <path id="Trazado_599946" data-name="Trazado 599946" d="M852.219,56.151c-.084.275-.084.517,0,.541s.223-.179.307-.453.084-.516,0-.54-.222.178-.307.453" transform="translate(-616.353 -40.284)" fill="#fff"/>
        <path id="Trazado_599947" data-name="Trazado 599947" d="M818.036,58.4l.978.325a1.82,1.82,0,0,1-.552.764,1.039,1.039,0,0,1-.91.3,1.244,1.244,0,0,1-1.095-1.125,8.457,8.457,0,0,1,1.58-.265" transform="translate(-590.531 -42.238)" fill="#e69c72"/>
        <path id="Trazado_599948" data-name="Trazado 599948" d="M816.451,53.918l.648,0h.01l1.275.009h.015l.612,0a2.086,2.086,0,0,0-.253-1.627,1.341,1.341,0,0,0-.345-.4.562.562,0,0,0-.344-.128,1.144,1.144,0,0,0-.924.571c-.04.059-.081.119-.118.182v0a7.8,7.8,0,0,0-.575,1.387" transform="translate(-590.527 -37.448)" fill="#fff"/>
        <path id="Trazado_599949" data-name="Trazado 599949" d="M818.528,52.529v0a9.9,9.9,0,0,0,.073,1.39h.01l1.275.009h.015a8.572,8.572,0,0,0,.358-1.622,1.35,1.35,0,0,0-.345-.4.559.559,0,0,0-.344-.128,1.143,1.143,0,0,0-.924.571c-.04.059-.081.119-.118.182" transform="translate(-592.03 -37.449)" fill="#30241b"/>
        <path id="Trazado_599950" data-name="Trazado 599950" d="M822.175,55.153c-.09.272-.115.511-.053.534s.183-.178.274-.45.114-.511.053-.534-.183.178-.273.45" transform="translate(-594.604 -39.565)" fill="#fff"/>
        <path id="Trazado_599951" data-name="Trazado 599951" d="M846.415,46.342l-.27,1.3a33.718,33.718,0,0,1-4.5.148,6.357,6.357,0,0,1,.059-1.909c1.574.2,3.127.165,4.71.459" transform="translate(-608.702 -33.187)" fill="#442d22"/>
        <path id="Trazado_599952" data-name="Trazado 599952" d="M813.574,44.234l.266,1.28a26.847,26.847,0,0,0,3.753.852,7.036,7.036,0,0,0-.109-1.824c-1.306-.063-2.6-.338-3.91-.308" transform="translate(-588.446 -31.992)" fill="#442d22"/>
        <path id="Trazado_599953" data-name="Trazado 599953" d="M829.536,61.013l.193-.465.172-.472c.05-.161.093-.323.146-.483l.122-.491.1-.5c.024-.168.059-.336.085-.505s.051-.339.074-.509.046-.344.074-.516c.021.173.036.346.049.518s.014.349.015.523-.009.349-.019.524-.035.349-.054.524l-.1.521c-.041.172-.089.341-.137.512s-.111.336-.174.5c0,0-.085.4,0,.48a.793.793,0,0,0,.131.1l.136.092a.726.726,0,0,0,.144.08l.148.075a3.362,3.362,0,0,0,.314.123c.214.074.441.132.667.2.114.035.227.07.338.109s.221.092.329.139c-.118-.015-.235-.028-.349-.046s-.234-.022-.35-.035-.234-.021-.352-.037l-.178-.025a1.467,1.467,0,0,1-.178-.031,3.557,3.557,0,0,1-.354-.1,2.044,2.044,0,0,1-.344-.146l-.164-.095a1.044,1.044,0,0,1-.159-.1c-.1-.079-.2-.16-.291-.242l-.1-.083Z" transform="translate(-599.949 -41.28)" fill="#e69c72"/>
        <path id="Trazado_599954" data-name="Trazado 599954" d="M818.625,74.591A10.67,10.67,0,0,1,822,73.307s3.609.786,4.3.926c.892.181,1.493,3.188,1.572,4.02s.25,1.308-.4,1.953a10.759,10.759,0,0,1-3.884,2.346,2.55,2.55,0,0,1-2.321.082,6.085,6.085,0,0,1-1.953-1.736c-.89-1.244-1.268-5.82-.684-6.307" transform="translate(-591.897 -53.022)" fill="#442d22"/>
        <path id="Trazado_599955" data-name="Trazado 599955" d="M822.749,78.963a5.934,5.934,0,0,0,1.358,1.354,3.249,3.249,0,0,0,1.623.623c1.709.112,3.212-1.573,3.212-1.573a10.7,10.7,0,0,1-4.924-.022,9.636,9.636,0,0,1-1.268-.381" transform="translate(-595.083 -57.113)" fill="#e69c72"/>
        <path id="Trazado_599956" data-name="Trazado 599956" d="M827.33,80.341a5.774,5.774,0,0,1,.09.972,3.244,3.244,0,0,0,1.622.623c1.709.112,3.212-1.573,3.212-1.573a10.706,10.706,0,0,1-4.924-.023" transform="translate(-598.396 -58.11)" fill="#fff"/>
        <path id="Trazado_599957" data-name="Trazado 599957" d="M830.941,87.677a6.2,6.2,0,0,0,.793-.006l.035.069a2.842,2.842,0,0,1,.133,1.832c-.392-.067-.807-.055-1.2-.139a3.027,3.027,0,0,0,.242-1.757" transform="translate(-600.833 -63.411)" fill="#f3b98a"/>
        <path id="Trazado_599958" data-name="Trazado 599958" d="M805.784,9.124c.912.835,1.491.6,2.63.658a12.593,12.593,0,0,0,8.112-2.234,4.3,4.3,0,0,0,1.9,1.816,2.774,2.774,0,0,1,1.754,2.1c.365,1.726-.292,4.165.877,7.088l1.535-3.58c.257-2.375,1.479-4.219,1.607-6.649a7.177,7.177,0,0,0-.513-3.411v0a3.511,3.511,0,0,0-.218-.387,6.643,6.643,0,0,0-3.946-2.338,17.459,17.459,0,0,0-3.933.133c-.883-1.9-4.022-2.657-5.859-2.175-2.5.656-4.849,2.714-5.188,5.184,0,.019-.006.038-.007.057a4.7,4.7,0,0,0,1.25,3.743" transform="translate(-581.889 0)" fill="#5e402f"/>
        <path id="Trazado_599959" data-name="Trazado 599959" d="M863.917,17.646l0,.01-.008-.006q-.036-.042.006,0" transform="translate(-624.843 -12.75)" fill="#442d22"/>
        <path id="Trazado_599960" data-name="Trazado 599960" d="M805.784,21.393c.912.835,1.491.6,2.63.658a12.593,12.593,0,0,0,8.112-2.234,4.3,4.3,0,0,0,1.9,1.816,2.774,2.774,0,0,1,1.754,2.1c.365,1.726-.292,4.165.877,7.088l1.535-3.58c.257-2.375,1.479-4.219,1.607-6.649a7.177,7.177,0,0,0-.513-3.411,6.857,6.857,0,0,1-.936,3.624c.39-1.159-.907-2.956-1.784-3.629a4.508,4.508,0,0,1-.275,2.948c-.49-.612-1.5-.728-2.119-1.211a10.024,10.024,0,0,1-1.461-1.948c-.276,1.014-1.64,1.831-2.484,2.33a8.077,8.077,0,0,1-4.019.932,7.814,7.814,0,0,1-6.072-2.573,4.7,4.7,0,0,0,1.25,3.743" transform="translate(-581.889 -12.268)" fill="#442d22"/>
        <path id="Trazado_599961" data-name="Trazado 599961" d="M861.018,53.992c.045-2.6,4.435-4.413,4.665-.945.086,1.287-1.207,3.389-2.5,3.7-1.369.333-2.191-1.066-2.831-1.354Z" transform="translate(-622.284 -36.984)" fill="#f3b98a"/>
        <path id="Trazado_599962" data-name="Trazado 599962" d="M868.684,55.317l-.062.044a1.01,1.01,0,0,0-1.248-.287c-.463.276-.353.571-.27,1.011.089.468.279,2.339-.741,1.18-1.429-1.624,1.9-4.111,2.32-1.948" transform="translate(-626.372 -39.399)" fill="#e69c72"/>
        <path id="Trazado_599963" data-name="Trazado 599963" d="M835,261.138a.8.8,0,1,0,.8-.8.8.8,0,0,0-.8.8" transform="translate(-603.944 -188.296)" fill="#52a3cc"/>
        <path id="Trazado_599964" data-name="Trazado 599964" d="M853.069,234.839c1.33,1.355,1.868,3.459,3.069,4.972a46.837,46.837,0,0,0,4.969,5.407,26.139,26.139,0,0,0,6.236,4.2,84.508,84.508,0,0,1-.45-9.273Z" transform="translate(-617.013 -169.856)" fill="#2e5d75"/>
        <path id="Trazado_599965" data-name="Trazado 599965" d="M897.673,116.185c-2.173-1.151-5.242.853-6.571,2.879-1.725,2.631-.093,31.368,1.239,34.272.912,1.988,4.864,4.835,7.451,3.109,2.045-1.364,1.158-17.177,1.072-22.707-.044-2.849-.525-9.126-.853-12-.266-2.337-.682-4.676-2.338-5.553" transform="translate(-643.983 -83.792)" fill="#42799b"/>
        <path id="Trazado_599966" data-name="Trazado 599966" d="M820.1,188.093a12.86,12.86,0,0,1-1.16,3.4s-5.34-2.24-6.436-3.848l-.1-2.363,1.326-6.162c1.948,1.949,5.17,8.726,6.368,8.972" transform="translate(-587.599 -129.556)" fill="#f3b98a"/>
        <path id="Trazado_599967" data-name="Trazado 599967" d="M848.475,212.535c-4.96-4.318-16.217-5.115-21.636-9.208a38.767,38.767,0,0,0-2.29,4.433c1.092,1.662,5.558,5.323,6.468,6.1a34.5,34.5,0,0,0,11.069,6.664c4.807,1.946,7.322,2.9,9.593.025,2.354-2.984.017-5.207-3.2-8.012" transform="translate(-596.385 -147.064)" fill="#42799b"/>
        <path id="Trazado_599968" data-name="Trazado 599968" d="M868.343,172.6c-.38-2.028-.385-18.753-.572-20.373-.944,5.905-.531,13.791-.939,19.9-1.571-.556-10.066-2.548-10.066-2.548,1.023.13,5.771,2.536,7,2.9a15.991,15.991,0,0,1,3.526,1.287c1.047.628,1.643,1.942,2.632,2.482-.043-1.366-1.332-2.334-1.579-3.651" transform="translate(-619.687 -110.103)" fill="#2e5d75"/>
        <path id="Trazado_599969" data-name="Trazado 599969" d="M74.319,144.691c.193-1.717.346-3.116.341-3.137-.082-.316.517-21.282,1.817-26.482,1.539-6.154,1.105-12.664,1.052-16.646-1.255-1.945-7.338-5.659-8.287-7.037L67.605,87.4c-.832,1.457-6.03,2.608-8.654,2.928-1.989.243-8.6,3.33-10.845,5.079-2.759,2.148.237,42.787.9,49.285Z" transform="translate(-33.965 -63.215)" fill="#eae8d0"/>
        <path id="Trazado_599970" data-name="Trazado 599970" d="M95.356,75.973c-.607,1.294-3.208,1.168-4.6,1.651-2.877-1.662-5.657-1.6-8.068-4.3,1.144-1.474.96-10.255,1.44-11.783.157-.5,1.261,5.715,1.54,4.961a9.474,9.474,0,0,0,.86-3.458L95.517,70.6c-.563,1.209-.006,2.919.022,4.253a2.514,2.514,0,0,1-.183,1.12" transform="translate(-59.81 -44.493)" fill="#f3b98a"/>
        <path id="Trazado_599971" data-name="Trazado 599971" d="M98.4,71.211a4.643,4.643,0,0,1-4.595.814c-3.5-1.126-7.167-4.086-6.973-7.854.485-1.306,2.68-4.056,2.562-4.766l8.985,7.553c-.563,1.209-.006,2.92.022,4.253" transform="translate(-62.798 -42.967)" fill="#e69c72"/>
        <path id="Trazado_599972" data-name="Trazado 599972" d="M106.093,119.548c-.1-.659-.351.847-.3,1.172a22.28,22.28,0,0,0,1.7,2.891,23.385,23.385,0,0,0,2.24-3.945Z" transform="translate(-76.517 -86.348)" fill="#232815"/>
        <path id="Trazado_599973" data-name="Trazado 599973" d="M105.209,129.268l-2.568,35.507,2.269,2.137,1.663-2.479-.892-35.159Z" transform="translate(-74.239 -93.498)" fill="#232815"/>
        <path id="Trazado_599974" data-name="Trazado 599974" d="M91.962,96.747c-.265,1.86-2.237,4.371-4.3,4.68-1.763-.032-7.573-4.094-7.815-6.292,0,0-1.182.661-1.969,1.128.553.935,4.611,9.86,5.24,10.506,1.268-.845,3.239-3.09,4.416-4.059a31.121,31.121,0,0,1,3.923,3.584c2.307-2.75.5-9.547.5-9.547" transform="translate(-56.331 -68.81)" fill="#fff"/>
        <path id="Trazado_599975" data-name="Trazado 599975" d="M51.324,275.062a144.737,144.737,0,0,0,14.6,1.407V294.7c-.932,3.021-2.568,14.12-4.162,27.026-2.083,16.852-4.1,36.783-4.388,45.826l-2.421-.191c-3.926-18.273-4.758-87.244-3.629-92.3" transform="translate(-36.787 -198.948)" fill="#292929"/>
        <path id="Trazado_599976" data-name="Trazado 599976" d="M83.835,288.521c.009.358.02.726.03,1.1.2,6.709.646,15.847,1.262,25.661.3,4.847.652,9.86,1.035,14.826,1.3,16.8,2.994,33.064,4.8,40.617l2.424.135c.081-9.047,1.632-29.018,3.323-45.915,1.294-12.939,2.671-24.073,3.533-27.116l-.423-18.223c-5.544.052-15.911-.784-15.911-.784a75.144,75.144,0,0,0-.074,9.7" transform="translate(-60.569 -201.668)" fill="#292929"/>
        <path id="Trazado_599977" data-name="Trazado 599977" d="M77.258,309.494a11.994,11.994,0,0,0,1.919,2.311,15.51,15.51,0,0,1,2.811,3.276c-1.051,5.574-1.423,13.915-1.549,22.385.3,4.847.652,9.86,1.035,14.826,1.035-12.564,2.187-33.117,2.79-35.467.628-2.439,3.552-5.14,5.213-7.178-1.846,1.007-3.7,3.59-6.136,3.1a12.865,12.865,0,0,1-4.194-2.039c-.648-.423-1.28-.848-1.888-1.211" transform="translate(-55.88 -223.853)" fill="#161616"/>
        <path id="Trazado_599978" data-name="Trazado 599978" d="M117.43,310.265a4.057,4.057,0,0,0-.62.275l.4-.492Z" transform="translate(-84.487 -224.253)" fill="#161616"/>
        <path id="Trazado_599979" data-name="Trazado 599979" d="M77.032,309.223l.02.031-.032-.019q-.1-.138.012-.012" transform="translate(-55.673 -223.613)" fill="#161616"/>
        <path id="Trazado_599980" data-name="Trazado 599980" d="M35.806,140.017a84.4,84.4,0,0,1-.451,9.271c-.481,4.808-1.278,9.743-2.063,16.443,1.7.1.969.168,2.653.346a59.509,59.509,0,0,0,9.741.509c.053-1.065-.038-12.365-.2-25.6-.019-1.533-.038-3.093-.058-4.666-.243-19.076-.6-40.072-.858-39.919a18.079,18.079,0,0,1-4.707,2.69c-6.12,2.443-8.943,2.819-9.432,4.879-.885,3.74.759,6.838,1.687,10.612.858,3.488,3.439,15.987,3.655,23.82.016.548.025,1.086.029,1.614" transform="translate(-21.83 -69.725)" fill="#721e0a"/>
        <path id="Trazado_599981" data-name="Trazado 599981" d="M133.875,169.288c-.284-5.555-2.192-16.847-2.192-22.505,0-9.941,7.9-32.221,4.965-33.858-3.285-1.836-7.212-4.9-10.382-6.15,0,0-3.448,63.192-3.285,66.33a75.037,75.037,0,0,0,8.67-.36c2.723-.266,2.384-.318,2.224-3.457" transform="translate(-88.946 -77.229)" fill="#721e0a"/>
        <path id="Trazado_599982" data-name="Trazado 599982" d="M57.644,607.217c-1,1.236-2.559,2.278-3.057,3.849,1.743.633,4.041.188,5.827-.022-.151-1.121-.246-2.9-.485-3.828Z" transform="translate(-39.482 -439.191)" fill="#fff"/>
        <path id="Trazado_599983" data-name="Trazado 599983" d="M110.4,607.217c1,1.236,4.371,2.276,4.869,3.847-1.743.633-5.853.19-7.639-.019.151-1.121.246-2.9.485-3.828Z" transform="translate(-77.845 -439.191)" fill="#fff"/>
        <path id="Trazado_599984" data-name="Trazado 599984" d="M67.77,145.236c-3.9-25.721-5.5-42.231-5.5-42.231a36.123,36.123,0,0,0,2.992-3.077,33.89,33.89,0,0,0-4.232-1.163,67.224,67.224,0,0,1,6.633-3.633c.462-.278.214,41.774.11,50.1" transform="translate(-44.14 -68.807)" fill="#9e2810"/>
        <path id="Trazado_599985" data-name="Trazado 599985" d="M129.081,150.789c0-4.958,3.927-42.951,3.927-42.951a36.12,36.12,0,0,1-2.992-3.077c1.372-.595,2.507-.3,3.664-1.26-.024-.025-5.27-3.7-5.27-3.7-.153,1.538.073,44.917.671,50.986" transform="translate(-92.844 -72.186)" fill="#9e2810"/>
        <path id="Trazado_599986" data-name="Trazado 599986" d="M48.879,253.632a26.068,26.068,0,0,0,6.235-4.2,43.142,43.142,0,0,0,3.9-4.1c-.019-1.533-.038-3.092-.058-4.666l-9.626,3.7a84.4,84.4,0,0,1-.451,9.271" transform="translate(-35.353 -174.069)" fill="#441006"/>
        <path id="Trazado_599987" data-name="Trazado 599987" d="M10.342,116.621c2.355-.706,4.976,1.856,5.885,4.1,1.181,2.917-6.006,30.788-7.878,33.378-1.281,1.773-5.711,3.8-7.913,1.6-1.741-1.736,2.2-17.074,3.363-22.482.6-2.786,2.289-8.85,3.169-11.605.716-2.241,1.578-4.455,3.373-4.993" transform="translate(0 -84.264)" fill="#721e0a"/>
        <path id="Trazado_599988" data-name="Trazado 599988" d="M94.152,206.007a11,11,0,0,0,.517,3.559s6.684-1.23,8.332-2.612l.68-2.307-1.15-5.713c-2.711,1.562-6.941,7.05-8.379,7.073" transform="translate(-68.095 -143.886)" fill="#f3b98a"/>
        <path id="Trazado_599989" data-name="Trazado 599989" d="M6.133,222.7c5.7-3.272,16.9-1.865,23.013-4.827a38.777,38.777,0,0,1,1.384,4.794c-1.395,1.418-6.487,4.142-7.531,4.725a34.5,34.5,0,0,1-12.153,4.385c-5.094.975-7.746,1.425-9.415-1.841-1.729-3.384,1-5.11,4.7-7.236" transform="translate(-0.65 -157.583)" fill="#721e0a"/>
        <path id="Trazado_599990" data-name="Trazado 599990" d="M28.171,175.233c.767-1.915,4.023-18.321,4.521-19.873-.221,5.976-2.16,13.631-2.948,19.707,1.65-.24,10.37-.543,10.37-.543-1.029-.071-6.154,1.366-7.429,1.485a15.964,15.964,0,0,0-3.708.577c-1.149.412-1.989,1.585-3.064,1.922.308-1.331,1.76-2.03,2.259-3.275" transform="translate(-18.742 -112.37)" fill="#441006"/>
        <path id="Trazado_599991" data-name="Trazado 599991" d="M134.31,61.579c-.486-2.109,2.7-5.148,3.581-2.432a4.416,4.416,0,0,1-1.271,3.88c-1.04.759-1.987-.075-2.561-.079Z" transform="translate(-96.963 -42.002)" fill="#f3b98a"/>
        <path id="Trazado_599992" data-name="Trazado 599992" d="M139.433,61.791l-.04.057c-.2-.23-.811-.1-1.067.215-.318.388-.17.587-.014.912.166.346.7,1.788-.361,1.217-1.482-.8.709-4,1.483-2.4" transform="translate(-99.414 -44.374)" fill="#e69c72"/>
        <path id="Trazado_599993" data-name="Trazado 599993" d="M100.145,33.419a25.134,25.134,0,0,0,.589-9.6c-.259-2.833-1.547-6.917-3.394-8.048-3.836-2.35-6.916-.707-10.044,2.48-.745,12.449-.88,10.514-.806,12.468.229,6,7.294,8.11,8.775,8.133,4.536.069,4.448-3.611,4.88-5.43" transform="translate(-62.545 -10.602)" fill="#f3b98a"/>
        <path id="Trazado_599994" data-name="Trazado 599994" d="M98.313,61.621l-1.288.322c.032.428.379.556.607.73a1.466,1.466,0,0,0,1.122.279,1.71,1.71,0,0,0,1.539-1.091,13.375,13.375,0,0,0-1.979-.24" transform="translate(-70.177 -44.568)" fill="#e69c72"/>
        <path id="Trazado_599995" data-name="Trazado 599995" d="M100.164,57.3l-.826.01h-.014l-1.625.02h-.018l-.781.01a1.753,1.753,0,0,1,.532-1.566,1.789,1.789,0,0,1,.49-.391.958.958,0,0,1,.455-.127,1.347,1.347,0,0,1,1.1.54c.044.056.087.113.127.174v0a5.631,5.631,0,0,1,.556,1.328" transform="translate(-70.052 -39.967)" fill="#fff"/>
        <path id="Trazado_599996" data-name="Trazado 599996" d="M101.123,55.973v0a7.629,7.629,0,0,1-.271,1.337h-.013l-1.625.021H99.2a5.932,5.932,0,0,1-.249-1.556,1.8,1.8,0,0,1,.491-.391.961.961,0,0,1,.454-.127,1.347,1.347,0,0,1,1.1.541c.044.055.087.113.127.174" transform="translate(-71.567 -39.967)" fill="#30241b"/>
        <path id="Trazado_599997" data-name="Trazado 599997" d="M100.227,58.6c.08.261.079.49,0,.513s-.211-.17-.291-.43-.08-.49,0-.513.211.169.291.429" transform="translate(-72.238 -42.069)" fill="#fff"/>
        <path id="Trazado_599998" data-name="Trazado 599998" d="M127.885,60.646l-.928.309a1.729,1.729,0,0,0,.524.725.987.987,0,0,0,.864.284,1.18,1.18,0,0,0,1.038-1.067,8.072,8.072,0,0,0-1.5-.251" transform="translate(-91.826 -43.863)" fill="#e69c72"/>
        <path id="Trazado_599999" data-name="Trazado 599999" d="M126.769,56.411h.136l.444,0h.014l1.208-.008h.01l.615,0a7.416,7.416,0,0,0-.544-1.317h0c-.036-.06-.074-.117-.113-.173a1.086,1.086,0,0,0-.876-.542.532.532,0,0,0-.327.121,1.3,1.3,0,0,0-.327.384,2.328,2.328,0,0,0-.3.928,1.407,1.407,0,0,0,.065.616" transform="translate(-91.638 -39.32)" fill="#fff"/>
        <path id="Trazado_600000" data-name="Trazado 600000" d="M126.726,55.8c.063.219.132.428.2.615,0,.006,0,.009.006.015l.439-.018h.014l1.208-.008h.01a9.533,9.533,0,0,0,.07-1.32h0c-.036-.061-.074-.117-.113-.173a1.086,1.086,0,0,0-.876-.542.534.534,0,0,0-.327.121,1.307,1.307,0,0,0-.327.384,2.331,2.331,0,0,0-.3.928" transform="translate(-91.659 -39.32)" fill="#30241b"/>
        <path id="Trazado_600001" data-name="Trazado 600001" d="M128.762,57.826c.014.271-.025.5-.087.5s-.122-.209-.136-.481.025-.5.087-.5.123.209.136.48" transform="translate(-92.969 -41.477)" fill="#fff"/>
        <path id="Trazado_600002" data-name="Trazado 600002" d="M92.339,47.664c0-.048,0-.1-.006-.144,1.734-.156,3.45-.165,5.185-.319.031.51.3,1.329.078,1.811-.841-.019-4.069.028-5.41-.057a7.424,7.424,0,0,0,.153-1.291" transform="translate(-66.677 -34.14)" fill="#442d22"/>
        <path id="Trazado_600003" data-name="Trazado 600003" d="M124.706,46.618c1.23-.05,2.453-.242,3.683-.284q.132.638.235,1.28c-.693.232-3.388.61-4.04.734a5.686,5.686,0,0,1,.122-1.729" transform="translate(-90.076 -33.513)" fill="#442d22"/>
        <path id="Trazado_600004" data-name="Trazado 600004" d="M116.336,63.126l-.183-.441-.163-.448c-.048-.152-.088-.306-.138-.458l-.116-.465-.1-.473c-.023-.159-.056-.319-.081-.479s-.048-.322-.07-.483-.044-.326-.071-.49c-.02.164-.034.328-.047.491s-.013.331-.014.5.009.332.019.5.033.332.051.5l.091.494c.039.163.084.324.129.486s.105.318.165.475c0,0,.081.383,0,.455a.727.727,0,0,1-.125.094l-.129.087a.7.7,0,0,1-.137.076l-.14.071a3.125,3.125,0,0,1-.3.117c-.2.07-.418.125-.633.189-.108.033-.215.066-.321.1s-.21.087-.312.132c.112-.014.223-.027.332-.044s.222-.021.332-.033.222-.02.334-.035l.169-.024a1.367,1.367,0,0,0,.169-.029,3.346,3.346,0,0,0,.336-.09,1.945,1.945,0,0,0,.327-.138l.155-.09a.988.988,0,0,0,.15-.1c.094-.074.185-.152.277-.23l.092-.078Z" transform="translate(-82.253 -42.954)" fill="#e69c72"/>
        <path id="Trazado_600005" data-name="Trazado 600005" d="M112,80.521a7.047,7.047,0,0,1-1.382,1.6,2.841,2.841,0,0,1-1.584.715c-1.631.094-2.941-1.975-2.941-1.975a8.28,8.28,0,0,0,2.951.378,8.544,8.544,0,0,0,1.727-.29,8.016,8.016,0,0,0,1.23-.431" transform="translate(-76.735 -58.24)" fill="#e69c72"/>
        <path id="Trazado_600006" data-name="Trazado 600006" d="M110.769,81.848a8.956,8.956,0,0,0-.152,1.172,2.839,2.839,0,0,1-1.584.714c-1.631.095-2.942-1.975-2.942-1.975a8.286,8.286,0,0,0,2.951.378,8.566,8.566,0,0,0,1.727-.29" transform="translate(-76.734 -59.136)" fill="#fff"/>
        <path id="Trazado_600007" data-name="Trazado 600007" d="M103.649,5.892a10.7,10.7,0,0,1,3.573-.342c2.277.363,4.788,2.591,4.743,5.294l-2.818-1.168a7.028,7.028,0,0,0-3.832-.6c-.573.1-1.438.6-2.012.465-.536-.126-1.2-1.054-1.594-1.443A7.381,7.381,0,0,0,100.154,6.7c.559-.669,2.655-.656,3.495-.811" transform="translate(-72.44 -3.973)" fill="#38241c"/>
        <path id="Trazado_600008" data-name="Trazado 600008" d="M78.1,8.459a7.239,7.239,0,0,1,3.574-2.405,11.3,11.3,0,0,1,3.711,0l-2.2,2.681a2.1,2.1,0,0,1-.139.192c-1.59,1.793-1.584,4.549-1.808,6.795-.2,2-.237,5.717-1.1,7.469-.547-1.271-1.4-.314-1.833-1.7-.863-2.737-2.352-10.473-.206-13.036" transform="translate(-55.69 -4.267)" fill="#38241c"/>
        <path id="Trazado_600009" data-name="Trazado 600009" d="M86.44,14.552a17.057,17.057,0,0,1-.069-4.88c.69-2.632,3.368-3.3,5.5-3.23.942.03,3.234,1.019,3.586,2.055,1.944-1.281,5.282.024,6.037,2.206.78,2.257-.138,8.018-.894,10.768-.674-1.524-.646-7.543-1.734-8.98-.439-.58-1.17-1.349-1.924-1.184-.892.2.29,1.871-.535,1.871,0,0-4.007-3.437-5.791-1.307-1.324,1.58-1.828,6.29-4.656,6.256.778-.286.591-2.843.481-3.574" transform="translate(-62.173 -4.656)" fill="#442d22"/>
        <path id="Trazado_600010" data-name="Trazado 600010" d="M77.637,59.887c-.043-2.461-4.007-3.736-4.225-.446-.081,1.221,1.145,3.215,2.367,3.512,1.3.315,1.252-1.052,1.858-1.325Z" transform="translate(-53.095 -41.56)" fill="#f3b98a"/>
        <path id="Trazado_600011" data-name="Trazado 600011" d="M77.151,62.027l.058.042a.958.958,0,0,1,1.184-.272c.439.261.335.542.256.959-.084.444-.264,2.219.7,1.119,1.355-1.541-1.8-3.9-2.2-1.848" transform="translate(-55.802 -44.284)" fill="#e69c72"/>
        <path id="Trazado_600012" data-name="Trazado 600012" d="M117.677,21.236l-.789-.616a2.131,2.131,0,0,1,.789.616" transform="translate(-84.543 -14.914)" fill="#442d22"/>
        <path id="Trazado_600013" data-name="Trazado 600013" d="M103.811,15.541l1.411,1.1a2.2,2.2,0,0,0-3.064,1.717c-.14.856.388,1.678.347,2.541a2.727,2.727,0,0,1-1.175,2.174c.934-1.74-.05-3.067-.491-4.785s.978-4.158,2.972-2.749" transform="translate(-72.878 -10.937)" fill="#442d22"/>
        <rect id="Rectángulo_344654" data-name="Rectángulo 344654" width="189.32" height="83.889" transform="translate(35.493 34.244)" fill="#fff"/>
        <path id="Trazado_600014" data-name="Trazado 600014" d="M124.535,205.877l-.277-86.079H315.8l.277,86.079Zm1.941-2.19h187.1v-81.7h-187.1Z" transform="translate(-89.874 -86.648)" fill="#262728"/>
        <path id="Trazado_600015" data-name="Trazado 600015" d="M754.2,120.425l-.1.125a.483.483,0,0,1,.1-.125" transform="translate(-545.426 -87.102)" fill="#f3b98a"/>
        <path id="Trazado_600016" data-name="Trazado 600016" d="M758.729,117.67c.521.318,1.165,2.914.961,3.444-.617,1.6-1.611-1.229-1.983-1.842-.348-.574-2.5-1.175-2.5-1.175.4-.154,2.917-.794,3.519-.427" transform="translate(-546.233 -85.028)" fill="#f3b98a"/>
        <path id="Trazado_600017" data-name="Trazado 600017" d="M751.981,118.462c.522.318,1.527,3.611,1.323,4.141-.617,1.6-1.907-1.25-2.345-2.539-.216-.636-2.5-1.175-2.5-1.175.4-.153,2.917-.794,3.519-.427" transform="translate(-541.352 -85.601)" fill="#f3b98a"/>
        <path id="Trazado_600018" data-name="Trazado 600018" d="M745.29,117.843c.521.319,1.527,3.612,1.322,4.141-.617,1.6-1.907-1.25-2.345-2.539-.216-.636-2.5-1.175-2.5-1.175.4-.153,2.917-.794,3.519-.428" transform="translate(-536.512 -85.154)" fill="#f3b98a"/>
        <path id="Trazado_600019" data-name="Trazado 600019" d="M741.376,117.586a6.609,6.609,0,0,1,1.346,3.543c-.608,1.361-1.913-1.078-2.359-2.181-.22-.544-1.438-.942-1.438-.942.4-.129,1.847-.737,2.451-.42" transform="translate(-534.454 -84.983)" fill="#f3b98a"/>
        <path id="Trazado_600020" data-name="Trazado 600020" d="M198.207,120.67l.106.131a.5.5,0,0,0-.106-.131" transform="translate(-143.36 -87.279)" fill="#f3b98a"/>
        <path id="Trazado_600021" data-name="Trazado 600021" d="M181.416,117.793c-.545.332-1.217,3.044-1,3.6.644,1.67,1.683-1.283,2.071-1.924.364-.6,2.607-1.227,2.607-1.227-.414-.16-3.046-.829-3.675-.446" transform="translate(-130.46 -85.113)" fill="#f3b98a"/>
        <path id="Trazado_600022" data-name="Trazado 600022" d="M187.51,118.62c-.545.332-1.594,3.772-1.381,4.325.644,1.67,1.992-1.305,2.449-2.651.226-.664,2.607-1.227,2.607-1.227-.414-.16-3.047-.83-3.675-.446" transform="translate(-134.604 -85.712)" fill="#f3b98a"/>
        <path id="Trazado_600023" data-name="Trazado 600023" d="M194.5,117.974c-.544.332-1.595,3.772-1.381,4.325.644,1.67,1.991-1.3,2.449-2.651.226-.664,2.607-1.227,2.607-1.227-.414-.16-3.046-.829-3.675-.446" transform="translate(-139.659 -85.245)" fill="#f3b98a"/>
        <path id="Trazado_600024" data-name="Trazado 600024" d="M201.439,117.7a6.906,6.906,0,0,0-1.406,3.7c.635,1.421,2-1.126,2.464-2.278.229-.569,1.5-.984,1.5-.984-.413-.134-1.929-.77-2.56-.439" transform="translate(-144.661 -85.066)" fill="#f3b98a"/>
        <path id="Trazado_600025" data-name="Trazado 600025" d="M121.328,215.593l.112.167a.6.6,0,0,1-.112-.167" transform="translate(-87.755 -155.935)" fill="#f3b98a"/>
        <path id="Trazado_600026" data-name="Trazado 600026" d="M120.645,194.185c.46-.665,3.409-1.054,3.935-.665,1.589,1.174-1.688,2.007-2.433,2.405-.7.374-1.829,3.253-1.829,3.253-.077-.583-.2-4.225.327-4.992" transform="translate(-86.973 -139.858)" fill="#f3b98a"/>
        <path id="Trazado_600027" data-name="Trazado 600027" d="M119.988,202.921c.46-.665,4.243-1.421,4.769-1.033,1.588,1.174-1.777,2.415-3.267,2.774-.736.177-1.829,3.252-1.829,3.252-.077-.583-.2-4.225.327-4.993" transform="translate(-86.498 -145.946)" fill="#f3b98a"/>
        <path id="Trazado_600028" data-name="Trazado 600028" d="M117.757,216.438a2.943,2.943,0,0,0-.31.029c-.056-1.252-.053-3.717.373-4.333.46-.665,4.243-1.422,4.769-1.033,1.589,1.174-1.777,2.415-3.267,2.773-.511.123-1.195,1.645-1.565,2.563" transform="translate(-84.93 -152.61)" fill="#f3b98a"/>
        <path id="Trazado_600029" data-name="Trazado 600029" d="M117.452,222.83a2.2,2.2,0,0,0-.307-.023h-.219a2.9,2.9,0,0,0-.815.116,3.716,3.716,0,0,1,.245-1.842c.413-.676,3.686-1.553,4.128-1.184,1.334,1.115-1.593,2.458-2.884,2.863a.652.652,0,0,0-.147.07" transform="translate(-83.974 -158.985)" fill="#f3b98a"/>
        <path id="Trazado_600030" data-name="Trazado 600030" d="M820.817,189.736l-.168.15a.661.661,0,0,0,.168-.15" transform="translate(-593.564 -137.233)" fill="#f3b98a"/>
        <path id="Trazado_600031" data-name="Trazado 600031" d="M806.993,169.93c-.566-.62-4.545-1.047-5.3-.7-2.269,1.037,2.116,1.878,3.095,2.261.917.359,2.194,3.022,2.194,3.022.158-.532.662-3.863.009-4.579" transform="translate(-579.39 -122.31)" fill="#f3b98a"/>
        <path id="Trazado_600032" data-name="Trazado 600032" d="M804.18,177.876c-.566-.62-5.646-1.4-6.4-1.061-2.27,1.037,2.2,2.254,4.2,2.618.985.18,2.194,3.022,2.194,3.022.158-.532.662-3.864.009-4.579" transform="translate(-576.571 -127.828)" fill="#f3b98a"/>
        <path id="Trazado_600033" data-name="Trazado 600033" d="M799.9,185.3c.752-.344,5.832.441,6.4,1.06s.263,3.2.069,4.226c-.076.007-.151.015-.226.027-.351-.752-1.268-2.554-2.047-2.7-2-.364-6.465-1.581-4.2-2.618" transform="translate(-578.099 -133.967)" fill="#f3b98a"/>
        <path id="Trazado_600034" data-name="Trazado 600034" d="M802.672,193.6c.636-.327,5.766.681,6.267,1.309a2.531,2.531,0,0,1,.137,1.853c-.047,0-.093-.009-.141-.01a16.121,16.121,0,0,1-1.843-.335c-1.721-.4-6.338-1.829-4.421-2.817" transform="translate(-580.23 -139.982)" fill="#f3b98a"/>
      </g>
    </g>
    <g id="Grupo_1013933" data-name="Grupo 1013933">
      <g id="Grupo_1013932" data-name="Grupo 1013932" transform="translate(403.688 8161.934)">
        <g id="Grupo_1013931" data-name="Grupo 1013931" clip-path="url(#clip-path-2)">
          <path id="Trazado_600035" data-name="Trazado 600035" d="M79.077,82.547H18.462a.276.276,0,1,1,0-.553H79.077a.276.276,0,0,1,0,.553" transform="translate(-8.136 -36.684)" fill="#c4c4c4"/>
          <path id="Trazado_600036" data-name="Trazado 600036" d="M79.077,66.248H18.462a.276.276,0,1,1,0-.553H79.077a.276.276,0,0,1,0,.553" transform="translate(-8.136 -29.392)" fill="#c4c4c4"/>
          <path id="Trazado_600037" data-name="Trazado 600037" d="M79.077,49.949H18.462a.276.276,0,0,1,0-.553H79.077a.276.276,0,0,1,0,.553" transform="translate(-8.136 -22.1)" fill="#c4c4c4"/>
          <path id="Trazado_600038" data-name="Trazado 600038" d="M79.077,33.651H18.462a.276.276,0,1,1,0-.553H79.077a.276.276,0,0,1,0,.553" transform="translate(-8.136 -14.808)" fill="#c4c4c4"/>
          <path id="Trazado_600039" data-name="Trazado 600039" d="M79.077,17.352H18.462a.276.276,0,1,1,0-.553H79.077a.276.276,0,0,1,0,.553" transform="translate(-8.136 -7.516)" fill="#c4c4c4"/>
          <path id="Trazado_600040" data-name="Trazado 600040" d="M79.077,1.053H18.462a.276.276,0,0,1,0-.553H79.077a.276.276,0,0,1,0,.553" transform="translate(-8.136 -0.224)" fill="#c4c4c4"/>
          <path id="Trazado_600041" data-name="Trazado 600041" d="M76.541,55.145H13.477a.552.552,0,0,1-.553-.553V.553a.553.553,0,1,1,1.105,0V54.04H76.541a.553.553,0,1,1,0,1.105" transform="translate(-5.782)" fill="#c4c4c4"/>
          <path id="Trazado_600042" data-name="Trazado 600042" d="M2.257,90.653H1.882v-2.33l-.637.387-.163-.265.845-.522h.33Z" transform="translate(-0.484 -39.337)" fill="#c4c4c4"/>
          <path id="Trazado_600043" data-name="Trazado 600043" d="M6.257,89.256c0,.906-.3,1.412-.915,1.412s-.914-.506-.914-1.412.3-1.409.914-1.409.915.507.915,1.409m-1.437,0c0,.8.18,1.115.522,1.115s.523-.31.523-1.115-.183-1.11-.523-1.11-.522.311-.522,1.11" transform="translate(-1.981 -39.303)" fill="#c4c4c4"/>
          <path id="Trazado_600044" data-name="Trazado 600044" d="M10.38,89.256c0,.906-.3,1.412-.915,1.412s-.914-.506-.914-1.412.3-1.409.914-1.409.915.507.915,1.409m-1.437,0c0,.8.179,1.115.522,1.115s.523-.31.523-1.115-.185-1.11-.523-1.11-.522.311-.522,1.11" transform="translate(-3.826 -39.303)" fill="#c4c4c4"/>
          <path id="Trazado_600045" data-name="Trazado 600045" d="M1.739,72.272c0,.511-.327.873-1.163,1.71H1.8l-.045.315H.147V74c.963-1,1.2-1.266,1.2-1.711A.42.42,0,0,0,.9,71.836a.672.672,0,0,0-.556.3l-.253-.2a1.009,1.009,0,0,1,.828-.413.751.751,0,0,1,.821.747" transform="translate(-0.04 -32)" fill="#c4c4c4"/>
          <path id="Trazado_600046" data-name="Trazado 600046" d="M5.8,72.934c0,.906-.3,1.412-.915,1.412s-.914-.506-.914-1.412.3-1.409.914-1.409.915.506.915,1.409m-1.437,0c0,.8.18,1.114.522,1.114s.523-.31.523-1.114-.183-1.111-.523-1.111-.522.311-.522,1.111" transform="translate(-1.775 -32)" fill="#c4c4c4"/>
          <path id="Trazado_600047" data-name="Trazado 600047" d="M9.919,72.934c0,.906-.3,1.412-.915,1.412s-.914-.506-.914-1.412.3-1.409.914-1.409.915.506.915,1.409m-1.437,0c0,.8.179,1.114.522,1.114s.523-.31.523-1.114S9.342,71.823,9,71.823s-.522.311-.522,1.111" transform="translate(-3.619 -32)" fill="#c4c4c4"/>
          <path id="Trazado_600048" data-name="Trazado 600048" d="M1.666,55.9a.627.627,0,0,1-.53.629.629.629,0,0,1,.616.66.848.848,0,0,1-.931.838A1.03,1.03,0,0,1,0,57.659l.226-.208a.767.767,0,0,0,.582.27.506.506,0,0,0,.551-.534c0-.375-.212-.49-.543-.49h-.2l.044-.291H.8a.458.458,0,0,0,.493-.481.407.407,0,0,0-.452-.417.773.773,0,0,0-.564.245l-.2-.224a1.108,1.108,0,0,1,.78-.322.722.722,0,0,1,.807.693" transform="translate(0 -24.7)" fill="#c4c4c4"/>
          <path id="Trazado_600049" data-name="Trazado 600049" d="M5.811,56.614c0,.907-.3,1.413-.915,1.413s-.914-.506-.914-1.413.3-1.407.914-1.407.915.506.915,1.407m-1.437,0c0,.8.179,1.114.522,1.114s.523-.31.523-1.114S5.235,55.5,4.9,55.5s-.522.31-.522,1.11" transform="translate(-1.782 -24.7)" fill="#c4c4c4"/>
          <path id="Trazado_600050" data-name="Trazado 600050" d="M9.932,56.614c0,.907-.3,1.413-.915,1.413S8.1,57.521,8.1,56.614s.3-1.407.914-1.407.915.506.915,1.407m-1.436,0c0,.8.178,1.114.522,1.114s.523-.31.523-1.114-.183-1.11-.523-1.11-.522.31-.522,1.11" transform="translate(-3.625 -24.7)" fill="#c4c4c4"/>
          <path id="Trazado_600051" data-name="Trazado 600051" d="M1.948,40.984H1.593v.674H1.23v-.674H.063v-.269l.82-1.829.316.13L.459,40.686h.776l.033-.734h.325v.734h.355Z" transform="translate(-0.028 -17.398)" fill="#c4c4c4"/>
          <path id="Trazado_600052" data-name="Trazado 600052" d="M5.932,40.294c0,.907-.3,1.413-.915,1.413S4.1,41.2,4.1,40.294s.3-1.407.914-1.407.915.506.915,1.407m-1.436,0c0,.8.18,1.114.522,1.114s.523-.31.523-1.114-.183-1.11-.523-1.11-.522.31-.522,1.11" transform="translate(-1.836 -17.398)" fill="#c4c4c4"/>
          <path id="Trazado_600053" data-name="Trazado 600053" d="M10.055,40.294c0,.907-.3,1.413-.915,1.413s-.914-.506-.914-1.413.3-1.407.914-1.407.915.506.915,1.407m-1.436,0c0,.8.178,1.114.522,1.114s.523-.31.523-1.114-.185-1.11-.523-1.11-.522.31-.522,1.11" transform="translate(-3.68 -17.398)" fill="#c4c4c4"/>
          <path id="Trazado_600054" data-name="Trazado 600054" d="M1.682,22.934H.617v.8a.948.948,0,0,1,.437-.106.768.768,0,0,1,.775.864.89.89,0,0,1-.947.923,1.071,1.071,0,0,1-.808-.346L.3,24.852a.734.734,0,0,0,.575.261c.343,0,.559-.224.559-.624,0-.421-.216-.568-.5-.568a.862.862,0,0,0-.387.094H.259V22.641H1.735Z" transform="translate(-0.033 -10.13)" fill="#c4c4c4"/>
          <path id="Trazado_600055" data-name="Trazado 600055" d="M5.819,23.975c0,.906-.3,1.412-.915,1.412s-.914-.506-.914-1.412.3-1.409.914-1.409.915.506.915,1.409m-1.437,0c0,.8.179,1.114.522,1.114s.523-.31.523-1.114-.183-1.111-.523-1.111-.522.311-.522,1.111" transform="translate(-1.785 -10.096)" fill="#c4c4c4"/>
          <path id="Trazado_600056" data-name="Trazado 600056" d="M9.94,23.975c0,.906-.3,1.412-.915,1.412s-.914-.506-.914-1.412.3-1.409.914-1.409.915.506.915,1.409m-1.437,0c0,.8.179,1.114.522,1.114s.523-.31.523-1.114-.183-1.111-.523-1.111-.522.311-.522,1.111" transform="translate(-3.629 -10.096)" fill="#c4c4c4"/>
          <path id="Trazado_600057" data-name="Trazado 600057" d="M1.958,8.09a.891.891,0,0,1-.87.974c-.665,0-.918-.546-.918-1.33C.17,6.84.558,6.244,1.2,6.244a.989.989,0,0,1,.564.167l-.147.25A.8.8,0,0,0,1.2,6.542c-.4,0-.633.412-.653,1.037a.769.769,0,0,1,1.412.511m-.38.011c0-.432-.183-.584-.442-.584a.705.705,0,0,0-.587.376c.016.6.176.873.538.873.323,0,.49-.265.49-.665" transform="translate(-0.076 -2.794)" fill="#c4c4c4"/>
          <path id="Trazado_600058" data-name="Trazado 600058" d="M5.936,7.653c0,.906-.3,1.412-.915,1.412s-.914-.506-.914-1.412.3-1.409.914-1.409.915.506.915,1.409m-1.437,0c0,.8.18,1.114.522,1.114s.523-.31.523-1.114S5.36,6.542,5.021,6.542,4.5,6.853,4.5,7.653" transform="translate(-1.837 -2.794)" fill="#c4c4c4"/>
          <path id="Trazado_600059" data-name="Trazado 600059" d="M10.059,7.653c0,.906-.3,1.412-.915,1.412S8.23,8.558,8.23,7.653s.3-1.409.914-1.409.915.506.915,1.409m-1.437,0c0,.8.179,1.114.522,1.114s.523-.31.523-1.114-.185-1.111-.523-1.111-.522.311-.522,1.111" transform="translate(-3.682 -2.794)" fill="#c4c4c4"/>
          <path id="Trazado_600060" data-name="Trazado 600060" d="M29.433,108.267H28.8v-2.13l-.591.364-.282-.429.931-.563h.575Z" transform="translate(-12.495 -47.205)" fill="#c4c4c4"/>
          <path id="Trazado_600061" data-name="Trazado 600061" d="M51.577,106.192c0,.428-.212.75-1.073,1.533h1.13l-.065.495h-1.8v-.458c.926-.915,1.143-1.163,1.143-1.506a.332.332,0,0,0-.355-.359.614.614,0,0,0-.5.286l-.383-.3a1.15,1.15,0,0,1,.947-.477c.617,0,.951.36.951.788" transform="translate(-22.227 -47.158)" fill="#c4c4c4"/>
          <path id="Trazado_600062" data-name="Trazado 600062" d="M72.505,106.106a.661.661,0,0,1-.539.657.641.641,0,0,1,.628.678c0,.461-.371.848-1.052.848a1.171,1.171,0,0,1-.947-.417l.346-.338a.747.747,0,0,0,.563.264.387.387,0,0,0,.429-.4c0-.291-.16-.4-.449-.4h-.229l.069-.445h.16a.348.348,0,0,0,.4-.359c0-.2-.144-.318-.368-.318a.748.748,0,0,0-.539.24l-.318-.346a1.3,1.3,0,0,1,.931-.371c.6,0,.918.314.918.7" transform="translate(-31.585 -47.158)" fill="#c4c4c4"/>
          <path id="Trazado_600063" data-name="Trazado 600063" d="M91.771,107.614H91.46v.6h-.628l0-.6H89.665v-.428l.784-1.8.547.205-.665,1.547h.506l.069-.653h.554v.653h.311Z" transform="translate(-40.117 -47.148)" fill="#c4c4c4"/>
          <path id="Trazado_600064" data-name="Trazado 600064" d="M113.46,105.969h-1v.58a.948.948,0,0,1,.409-.09.8.8,0,0,1,.791.9.975.975,0,0,1-1.081.979,1.155,1.155,0,0,1-.918-.417l.364-.334a.657.657,0,0,0,.53.265c.279,0,.446-.171.446-.49,0-.343-.16-.461-.388-.461a.651.651,0,0,0-.33.1h-.437v-1.489h1.69Z" transform="translate(-49.957 -47.205)" fill="#c4c4c4"/>
          <path id="Trazado_600065" data-name="Trazado 600065" d="M75.8,52.56,70.476,29.334l-11.033,9L52.587,11.484,36.689,30.34l-8.076-4.317-9.859,8.323-.712-.844L28.473,24.7l7.949,4.248L53.127,9.129l6.958,27.257,11.071-9.033,5.724,24.96Z" transform="translate(-8.072 -4.084)" fill="#60cb28"/>
          <path id="Trazado_600066" data-name="Trazado 600066" d="M68.666,57.887l-5.3-23.777L38.005,57.363l-9.894-8.971-5.986,7.173-.848-.708L28,46.8l10,9.066L64.03,32l5.2,23.339L77.353,44.8l.874.675Z" transform="translate(-9.519 -14.319)" fill="#ffe126"/>
          <path id="Trazado_600067" data-name="Trazado 600067" d="M78.825,26.014,76.452,9.05,51.784,23.542l-15.28-5.9L24.813,5.072l.81-.753L37.14,16.7,51.685,22.32,77.318,7.259l2.6,18.6Z" transform="translate(-11.101 -1.932)" fill="#304c8e"/>
        </g>
      </g>
    </g>
    <g id="Grupo_1013936" data-name="Grupo 1013936" transform="translate(489.762 8169.694)">
      <path id="Trazado_600094" data-name="Trazado 600094" d="M0,0H1.729V39.552H0Z" transform="translate(7.258 7.779)" fill="#ffe126"/>
      <rect id="Rectángulo_344659" data-name="Rectángulo 344659" width="1.729" height="39.552" transform="translate(21.086 7.779)" fill="#60cb28"/>
      <rect id="Rectángulo_344660" data-name="Rectángulo 344660" width="1.729" height="39.552" transform="translate(36.02 7.779)" fill="#7e10b8"/>
      <rect id="Rectángulo_344661" data-name="Rectángulo 344661" width="1.729" height="39.552" transform="translate(48.742 7.779)" fill="#304c8e"/>
      <rect id="Rectángulo_344662" data-name="Rectángulo 344662" width="1.729" height="39.552" transform="translate(63.676 7.779)" fill="#60cb28"/>
      <g id="Grupo_1013935" data-name="Grupo 1013935" transform="translate(0 0)">
        <g id="Grupo_1013934" data-name="Grupo 1013934" clip-path="url(#clip-path-3)">
          <path id="Trazado_600068" data-name="Trazado 600068" d="M105.2,52.472h14.547V10.247A137.543,137.543,0,0,1,105.2,25.512V52.471Z" transform="translate(-47.009 -4.579)" fill="#60cb28"/>
          <path id="Trazado_600069" data-name="Trazado 600069" d="M93.443,64.8V37.845A119.51,119.51,0,0,1,78.9,49.027V64.8Z" transform="translate(-35.257 -16.912)" fill="#304c8e"/>
          <path id="Trazado_600070" data-name="Trazado 600070" d="M67.143,73.84h0V58.062A107.264,107.264,0,0,1,52.6,66.028V73.84Z" transform="translate(-23.504 -25.947)" fill="#7e10b8"/>
          <path id="Trazado_600071" data-name="Trazado 600071" d="M40.844,80.276V72.464A96.763,96.763,0,0,1,26.3,77.677v2.6Z" transform="translate(-11.752 -32.382)" fill="#60cb28"/>
          <path id="Trazado_600072" data-name="Trazado 600072" d="M14.547,84.487v-2.6c-6.494,1.3-3.078.21-14.547,2.519v.08Z" transform="translate(0 -36.594)" fill="#60cb28"/>
          <path id="Trazado_600073" data-name="Trazado 600073" d="M0,84.487V84.08s13.454-2.011,14.547-2.192v2.6Z" transform="translate(0 -36.594)" fill="#ffe126"/>
          <path id="Trazado_600074" data-name="Trazado 600074" d="M15.039,12.567a1.853,1.853,0,1,1-1.854-1.853,1.853,1.853,0,0,1,1.854,1.853" transform="translate(-5.064 -4.788)" fill="#ffe126"/>
          <path id="Trazado_600075" data-name="Trazado 600075" d="M40.039,12.567a1.853,1.853,0,1,1-1.854-1.853,1.853,1.853,0,0,1,1.854,1.853" transform="translate(-16.236 -4.788)" fill="#60cb28"/>
          <path id="Trazado_600076" data-name="Trazado 600076" d="M67.039,12.567a1.853,1.853,0,1,1-1.854-1.853,1.853,1.853,0,0,1,1.854,1.853" transform="translate(-28.302 -4.788)" fill="#7e10b8"/>
          <path id="Trazado_600077" data-name="Trazado 600077" d="M90.039,12.567a1.853,1.853,0,1,1-1.854-1.853,1.853,1.853,0,0,1,1.854,1.853" transform="translate(-38.58 -4.788)" fill="#304c8e"/>
          <path id="Trazado_600078" data-name="Trazado 600078" d="M117.039,12.567a1.853,1.853,0,1,1-1.854-1.853,1.853,1.853,0,0,1,1.854,1.853" transform="translate(-50.646 -4.788)" fill="#60cb28"/>
          <path id="Trazado_600079" data-name="Trazado 600079" d="M35.139,2.53h-.384v.73h-.394V2.53H33.1V2.237L33.985.256,34.326.4l-.8,1.809h.841l.035-.8h.354v.8h.384Z" transform="translate(-14.79 -0.114)" fill="#60cb28"/>
          <path id="Trazado_600080" data-name="Trazado 600080" d="M39.453,1.782c0,.982-.327,1.53-.991,1.53s-.991-.548-.991-1.53S37.8.256,38.463.256s.991.549.991,1.526m-1.556,0c0,.871.195,1.207.566,1.207s.566-.336.566-1.207-.2-1.2-.566-1.2-.566.336-.566,1.2" transform="translate(-16.745 -0.114)" fill="#60cb28"/>
          <path id="Trazado_600081" data-name="Trazado 600081" d="M43.294.889a.719.719,0,1,1-1.438,0,.719.719,0,1,1,1.438,0m-1.079,0c0,.23.075.473.358.473s.358-.235.358-.473S42.86.416,42.573.416s-.358.235-.358.473m2.437-.7L42.6,3.282,42.321,3.1,44.368,0Zm.46,2.264a.719.719,0,1,1-1.438,0,.719.719,0,1,1,1.438,0m-1.075,0c0,.23.075.473.358.473s.358-.234.358-.473-.071-.469-.358-.469-.358.23-.358.469" transform="translate(-18.705 0)" fill="#60cb28"/>
          <path id="Trazado_600082" data-name="Trazado 600082" d="M11.128,1.066c0,.553-.354.946-1.261,1.853H11.2l-.049.341H9.4V2.937c1.044-1.088,1.3-1.371,1.3-1.853a.456.456,0,0,0-.486-.491.726.726,0,0,0-.6.322L9.341.7a1.1,1.1,0,0,1,.9-.446.813.813,0,0,1,.889.809" transform="translate(-4.174 -0.115)" fill="#60cb28"/>
          <path id="Trazado_600083" data-name="Trazado 600083" d="M15.521,1.783c0,.982-.327,1.53-.991,1.53s-.991-.548-.991-1.53.327-1.526.991-1.526.991.549.991,1.526m-1.556,0c0,.871.195,1.207.566,1.207s.566-.336.566-1.207-.2-1.2-.566-1.2-.566.336-.566,1.2" transform="translate(-6.051 -0.115)" fill="#60cb28"/>
          <path id="Trazado_600084" data-name="Trazado 600084" d="M19.362.89a.719.719,0,1,1-1.438,0,.719.719,0,1,1,1.438,0m-1.079,0c0,.23.075.473.358.473S19,1.129,19,.89s-.071-.473-.358-.473-.358.235-.358.473m2.437-.7-2.048,3.1L18.388,3.1,20.436,0Zm.46,2.264a.719.719,0,1,1-1.438,0,.719.719,0,1,1,1.438,0m-1.075,0c0,.23.075.473.358.473s.358-.234.358-.473-.071-.469-.358-.469-.358.23-.358.469" transform="translate(-8.01 0)" fill="#60cb28"/>
          <path id="Trazado_600085" data-name="Trazado 600085" d="M60.492.655H59.338v.871a1.019,1.019,0,0,1,.472-.115.833.833,0,0,1,.841.938.963.963,0,0,1-1.026,1,1.159,1.159,0,0,1-.876-.376L59,2.733a.8.8,0,0,0,.624.283c.371,0,.605-.243.605-.677,0-.455-.235-.615-.539-.615a.919.919,0,0,0-.42.1h-.319V.336h1.6Z" transform="translate(-26.254 -0.15)" fill="#60cb28"/>
          <path id="Trazado_600086" data-name="Trazado 600086" d="M64.969,1.782c0,.982-.327,1.53-.991,1.53s-.991-.548-.991-1.53.327-1.526.991-1.526.991.549.991,1.526m-1.556,0c0,.871.195,1.207.566,1.207s.566-.336.566-1.207-.2-1.2-.566-1.2-.566.336-.566,1.2" transform="translate(-28.148 -0.114)" fill="#60cb28"/>
          <path id="Trazado_600087" data-name="Trazado 600087" d="M68.81.889a.719.719,0,1,1-1.438,0,.719.719,0,1,1,1.438,0m-1.079,0c0,.23.075.473.358.473s.358-.235.358-.473-.071-.473-.358-.473S67.73.65,67.73.889m2.437-.7-2.048,3.1L67.836,3.1,69.884,0Zm.46,2.264a.719.719,0,1,1-1.438,0,.719.719,0,1,1,1.438,0m-1.075,0c0,.23.075.473.358.473s.358-.235.358-.473-.071-.469-.358-.469-.358.23-.358.469" transform="translate(-30.107 0)" fill="#60cb28"/>
          <path id="Trazado_600088" data-name="Trazado 600088" d="M84.095,2.467a.91.91,0,0,1-1.026.845c-.611,0-1.013-.35-1.013-.836a.815.815,0,0,1,.584-.77.725.725,0,0,1-.46-.69A.912.912,0,0,1,83.975,1c0,.3-.168.5-.5.668a.842.842,0,0,1,.624.8m-.425,0c0-.319-.168-.46-.645-.624l-.111-.04a.68.68,0,0,0-.434.668c0,.322.226.513.593.513s.6-.207.6-.517M82.578,1.021c0,.305.208.416.549.527l.075.027a.594.594,0,0,0,.376-.558.5.5,0,0,0-1,0" transform="translate(-36.669 -0.114)" fill="#60cb28"/>
          <path id="Trazado_600089" data-name="Trazado 600089" d="M88.524,1.782c0,.982-.327,1.53-.991,1.53s-.991-.548-.991-1.53S86.87.256,87.534.256s.991.549.991,1.526m-1.556,0c0,.871.195,1.207.566,1.207s.566-.336.566-1.207-.2-1.2-.566-1.2-.566.336-.566,1.2" transform="translate(-38.674 -0.114)" fill="#60cb28"/>
          <path id="Trazado_600090" data-name="Trazado 600090" d="M92.365.889a.719.719,0,1,1-1.438,0,.719.719,0,1,1,1.438,0m-1.079,0c0,.23.075.473.358.473S92,1.128,92,.889s-.071-.473-.358-.473-.358.235-.358.473m2.437-.7-2.048,3.1L91.391,3.1,93.439,0Zm.46,2.264a.719.719,0,1,1-1.438,0,.719.719,0,1,1,1.438,0m-1.075,0c0,.23.075.473.358.473s.358-.235.358-.473-.071-.469-.358-.469-.358.23-.358.469" transform="translate(-40.633 0)" fill="#60cb28"/>
          <path id="Trazado_600091" data-name="Trazado 600091" d="M111.762,2.467a.91.91,0,0,1-1.026.845c-.611,0-1.013-.35-1.013-.836a.814.814,0,0,1,.584-.77.725.725,0,0,1-.46-.69.912.912,0,0,1,1.8-.013c0,.3-.168.5-.5.668a.842.842,0,0,1,.624.8m-.425,0c0-.319-.168-.46-.646-.624l-.111-.04a.68.68,0,0,0-.434.668c0,.322.226.513.592.513s.6-.207.6-.517m-1.092-1.451c0,.305.208.416.549.527l.075.027a.594.594,0,0,0,.376-.558.5.5,0,0,0-1,0" transform="translate(-49.033 -0.114)" fill="#60cb28"/>
          <path id="Trazado_600092" data-name="Trazado 600092" d="M116.191,1.782c0,.982-.327,1.53-.991,1.53s-.991-.548-.991-1.53.327-1.526.991-1.526.991.549.991,1.526m-1.556,0c0,.871.195,1.207.566,1.207s.566-.336.566-1.207-.2-1.2-.566-1.2-.566.336-.566,1.2" transform="translate(-51.038 -0.114)" fill="#60cb28"/>
          <path id="Trazado_600093" data-name="Trazado 600093" d="M120.032.889a.719.719,0,1,1-1.438,0,.719.719,0,1,1,1.438,0m-1.079,0c0,.23.075.473.358.473s.358-.235.358-.473-.071-.473-.358-.473-.358.235-.358.473m2.437-.7-2.048,3.1-.283-.185L121.106,0Zm.46,2.264a.719.719,0,1,1-1.438,0,.719.719,0,1,1,1.438,0m-1.075,0c0,.23.075.473.358.473s.358-.235.358-.473-.071-.469-.358-.469-.358.23-.358.469" transform="translate(-52.997 0)" fill="#60cb28"/>
        </g>
      </g>
    </g>
  </g>
</svg>
