<svg xmlns="http://www.w3.org/2000/svg" xmlns:xlink="http://www.w3.org/1999/xlink" width="125.072" height="125.072" viewBox="0 0 125.072 125.072">
  <defs>
    <clipPath id="clip-path">
      <rect id="Rectángulo_344323" data-name="Rectángulo 344323" width="70.897" height="74.554" fill="#fff"/>
    </clipPath>
  </defs>
  <g id="Grupo_1013389" data-name="Grupo 1013389" transform="translate(6244 9484)">
    <circle id="Elipse_4842" data-name="Elipse 4842" cx="62.5" cy="62.5" r="62.5" transform="translate(-6244 -9484)" fill="#304c8e"/>
    <g id="Group_43_" data-name="Group (43)" transform="translate(-6151 -9391)">
      <path id="Trazado_598926" data-name="Trazado 598926" d="M36.549,16.055,16.055,36.549a15.864,15.864,0,0,0,.655,1.582l21.422-21.42a15.863,15.863,0,0,0-1.582-.655Z" transform="translate(-15.17 -15.17)" fill="#4ca220"/>
      <path id="Trazado_598927" data-name="Trazado 598927" d="M18.367.8.8,18.367a16.022,16.022,0,0,0,.26,1.7L20.065,1.058A16.022,16.022,0,0,0,18.367.8Z" transform="translate(-0.754 -0.754)" fill="#4ca220"/>
      <path id="Trazado_598928" data-name="Trazado 598928" d="M299.7,283.668c0-.137-.008-.274-.01-.41l-16.454,16.453c.137,0,.273.01.41.01a16.091,16.091,0,0,0,1.678-.088l14.289-14.289a16.09,16.09,0,0,0,.088-1.678Z" transform="translate(-267.627 -267.648)" fill="#4ca220"/>
      <path id="Trazado_598929" data-name="Trazado 598929" d="M68.634,46.122q-.611-.481-1.267-.9L45.2,67.389q.42.656.9,1.267Z" transform="translate(-42.708 -42.73)" fill="#4ca220"/>
      <path id="Trazado_598930" data-name="Trazado 598930" d="M0,15.009,15.009,0c-.434.026-.863.07-1.287.131L.131,13.722C.07,14.145.026,14.575,0,15.009Z" fill="#4ca220"/>
      <path id="Trazado_598931" data-name="Trazado 598931" d="M106.76,84.058l-22.7,22.7a16.114,16.114,0,0,0,1.365,1.222l22.559-22.559A16.123,16.123,0,0,0,106.76,84.058Z" transform="translate(-79.426 -79.426)" fill="#4ca220"/>
      <path id="Trazado_598932" data-name="Trazado 598932" d="M159.927,138.548a16.093,16.093,0,0,0-.877-1.6l-22.108,22.108a15.959,15.959,0,0,0,1.6.877Z" transform="translate(-129.396 -129.396)" fill="#4ca220"/>
      <path id="Trazado_598933" data-name="Trazado 598933" d="M28.816,19.794a16.1,16.1,0,0,0-9.022,9.022Z" transform="translate(-18.704 -18.704)" fill="#4ca220"/>
      <path id="Trazado_598934" data-name="Trazado 598934" d="M382.436,392.617a16.085,16.085,0,0,0,10.18-10.18Z" transform="translate(-361.361 -361.361)" fill="#4ca220"/>
      <path id="Trazado_598935" data-name="Trazado 598935" d="M220.714,200.477l-20.237,20.237a15.962,15.962,0,0,0,2.154.537l18.619-18.619A16.154,16.154,0,0,0,220.714,200.477Z" transform="translate(-189.429 -189.429)" fill="#4ca220"/>
    </g>
    <g id="Grupo_1013385" data-name="Grupo 1013385" transform="translate(2.197 2.106)">
      <g id="Grupo_1013384" data-name="Grupo 1013384" transform="translate(-6219.197 -9461.105)">
        <g id="Grupo_1013383" data-name="Grupo 1013383" clip-path="url(#clip-path)">
          <path id="Trazado_598949" data-name="Trazado 598949" d="M70.9,20.767c-.865,0-1.678,0-2.49-.007a.316.316,0,0,1-.2-.15c-.52-.83-1.028-1.667-1.55-2.5-.106-.169-.265-.3-.387-.463-.1-.125-.171-.265-.283-.443H58l1.441,3.557c-.625,0-1.2-.031-1.765.009-.532.037-.76-.176-.936-.677-.3-.852-.71-1.665-1.072-2.5a.553.553,0,0,0-.564-.411q-9.1.016-18.2.009c-.054,0-.109.005-.2.009v3.576H35.644c-.312,0-.624-.016-.935,0-.244.014-.315-.073-.313-.313.011-1,0-2,0-3,0-.08-.008-.161-.013-.259H15.332l-1.519,3.552H11.4l1.4-3.564H4.935c-.283.385-.587.766-.857,1.17A23.538,23.538,0,0,0,2.772,20.44a.582.582,0,0,1-.649.348c-.686-.013-1.373,0-2.122,0,.266-.473.5-.917.758-1.341.51-.826,1.007-1.661,1.564-2.455.6-.859,1.235-1.7,1.916-2.5.867-1.015,1.785-1.987,2.7-2.957.529-.558,1.083-1.1,1.662-1.6.549-.479,1.144-.906,1.721-1.353.455-.353.895-.728,1.372-1.047.844-.565,1.713-1.091,2.567-1.64a33.647,33.647,0,0,1,6.781-3.26c1.005-.365,2.011-.747,3.044-1.013A31.534,31.534,0,0,1,28.581.6c1.255-.134,2.507-.288,3.76-.44A31.905,31.905,0,0,1,39,.194a37.218,37.218,0,0,1,5.131.74c1.318.3,2.632.645,3.919,1.06a37.975,37.975,0,0,1,7.825,3.427,50.348,50.348,0,0,1,4.607,3.071,45.389,45.389,0,0,1,5.359,4.988c.509.532.928,1.151,1.387,1.731.357.451.732.89,1.064,1.359.407.575.792,1.167,1.161,1.766.484.786.943,1.588,1.44,2.43m-36.5-5.92v-.31q0-5.938.011-11.877c0-.2-.069-.261-.254-.245s-.367.013-.549.03a18.283,18.283,0,0,0-4.4,1.028,20.847,20.847,0,0,0-5.43,3.018c-.521.385-1,.832-1.486,1.261a21.261,21.261,0,0,0-2.908,3.106c-.863,1.136-1.651,2.33-2.463,3.5a1.952,1.952,0,0,0-.166.417,2.628,2.628,0,0,0,.416.066q8.454,0,16.909,0ZM36.718,2.533V14.821H54.024a1.587,1.587,0,0,0-.452-1.037c-.55-.836-1.156-1.635-1.764-2.43-.5-.653-1.011-1.3-1.559-1.913a23.425,23.425,0,0,0-5.322-4.387,18.2,18.2,0,0,0-6.973-2.512,8.919,8.919,0,0,0-1.235-.008m27.2,12.3c-.169-.215-.28-.387-.421-.53A35.21,35.21,0,0,0,59.53,10.59c-.56-.418-1.071-.9-1.648-1.295-.816-.554-1.666-1.059-2.514-1.565a37.883,37.883,0,0,0-5.285-2.611,7.284,7.284,0,0,0-.878-.236c-.131.376.074.551.277.73.446.394.907.772,1.331,1.189a22.84,22.84,0,0,1,2.734,3.1c.325.462.714.881,1.033,1.347.506.74.986,1.5,1.459,2.261.262.423.487.87.735,1.317ZM21.756,4.9a4.721,4.721,0,0,0-.717.136c-.5.177-1,.362-1.479.585a36.635,36.635,0,0,0-7.724,4.614c-.548.442-1.138.838-1.649,1.319-1.041.978-2.042,2-3.056,3.005a1.476,1.476,0,0,0-.166.287h6.742a.894.894,0,0,0,.246-.009.329.329,0,0,0,.183-.127c.242-.424.452-.868.714-1.279.5-.787,1.024-1.56,1.548-2.332A14.885,14.885,0,0,1,17.431,9.66c.81-.931,1.653-1.834,2.5-2.731a11.374,11.374,0,0,1,1.356-1.281,1.017,1.017,0,0,0,.468-.748" transform="translate(0 0)" fill="#fff"/>
          <path id="Trazado_598950" data-name="Trazado 598950" d="M71.908,247.451c-.417.675-.774,1.313-1.187,1.912q-1.1,1.6-2.266,3.163a30.7,30.7,0,0,1-4.3,4.607c-.758.677-1.53,1.342-2.341,1.952-.932.7-1.9,1.356-2.877,2a37.015,37.015,0,0,1-5.689,3.022,30.186,30.186,0,0,1-2.992,1.155c-1.613.5-3.241.966-4.887,1.343-1.236.283-2.506.424-3.766.591-1.042.138-2.089.264-3.137.319-1.079.057-2.163.051-3.243.016-.849-.028-1.7-.118-2.541-.224a52.672,52.672,0,0,1-5.616-.98,38.55,38.55,0,0,1-5.637-1.8,34.122,34.122,0,0,1-5.528-2.737c-1.035-.659-2.088-1.29-3.1-1.982-.684-.467-1.325-1-1.96-1.535a44.279,44.279,0,0,1-3.857-3.638c-.574-.614-1.155-1.228-1.665-1.893-.619-.807-1.167-1.669-1.743-2.508-.333-.485-.672-.966-.992-1.46-.27-.418-.515-.852-.791-1.312H4.384c.386.581.75,1.147,1.133,1.7.255.367.53.721.813,1.067a.444.444,0,0,0,.3.144q3.671.01,7.342,0a1.154,1.154,0,0,0,.126-.017,1.718,1.718,0,0,0-.224-.967c-.229-.568-.482-1.126-.723-1.689a2.2,2.2,0,0,1-.068-.224,1.755,1.755,0,0,1,.2-.024c.669,0,1.338,0,2.007,0a.27.27,0,0,1,.3.2c.3.736.644,1.456.936,2.2a.73.73,0,0,0,.794.535q8.648-.023,17.3-.011c.312,0,.624-.014.934.008.21.015.246-.07.246-.251,0-.834,0-1.668.008-2.5,0-.044,0-.089,0-.157h2.277v2.883c.11.005.2.013.284.014q8.964,0,17.929.02a.708.708,0,0,0,.8-.5c.3-.758.63-1.5.959-2.246.035-.08.137-.183.21-.185.759-.014,1.519-.008,2.33-.008L59.4,250.316c.286.018.536.046.785.047,2.145.006,4.29-.023,6.434.028a1.266,1.266,0,0,0,1.192-.67c.422-.632.871-1.25,1.237-1.914a.646.646,0,0,1,.708-.362c.7.02,1.391.006,2.157.006m-36.1,5.294H18.245c.065.21.106.392.178.562a2.791,2.791,0,0,0,.264.485c.251.369.533.717.771,1.094a24.781,24.781,0,0,0,2.712,3.378,22.443,22.443,0,0,0,4.1,3.512c.637.43,1.285.847,1.957,1.22a18.58,18.58,0,0,0,3.659,1.469,17.891,17.891,0,0,0,3.642.637c.208.018.289-.033.288-.267q-.012-5.085-.006-10.171v-1.919m2.29,0v.321q0,2.255,0,4.51,0,3.561,0,7.122c0,.363.035.4.331.38a16.875,16.875,0,0,0,4.751-1.067,18.945,18.945,0,0,0,3.934-2.032,28.219,28.219,0,0,0,3.958-3.262,14.026,14.026,0,0,0,1.156-1.323c.639-.787,1.275-1.578,1.884-2.389.4-.534.758-1.1,1.115-1.665a3.281,3.281,0,0,0,.229-.6Zm27.111.039c-.045-.028-.06-.046-.075-.046q-3.438,0-6.875,0a.3.3,0,0,0-.2.139c-.516.843-1.007,1.7-1.538,2.533A28.736,28.736,0,0,1,51.8,261.07c-.37.342-.751.674-1.1,1.038-.092.1-.08.294-.115.445a2.986,2.986,0,0,0,.382.031.741.741,0,0,0,.263-.074c1.05-.473,2.113-.921,3.143-1.434.892-.443,1.767-.928,2.612-1.454,1.148-.715,2.279-1.462,3.38-2.246.6-.431,1.134-.969,1.7-1.457.076-.066.157-.125.237-.187a20,20,0,0,0,2.764-2.706,1.306,1.306,0,0,0,.136-.246m-42.089,9.89.1-.146a2.975,2.975,0,0,0-.319-.467c-.238-.24-.515-.441-.757-.678-.628-.615-1.269-1.219-1.861-1.867s-1.112-1.315-1.652-1.985c-.193-.24-.341-.515-.526-.763-.294-.395-.619-.767-.9-1.173s-.51-.842-.764-1.263c-.278-.46-.573-.911-.829-1.383a.338.338,0,0,0-.35-.221c-2.173.006-4.345,0-6.518.006-.1,0-.192.01-.333.018a1.544,1.544,0,0,0,.126.218c.192.222.382.446.585.656a31.957,31.957,0,0,0,4.657,4.042,41.365,41.365,0,0,0,3.542,2.35c1.605.89,3.29,1.638,4.949,2.43a4.6,4.6,0,0,0,.847.224" transform="translate(-1.396 -193.002)" fill="#fff"/>
          <path id="Trazado_598951" data-name="Trazado 598951" d="M203.934,144.1c-.356-.028-.876-.086-1.4-.106a13.893,13.893,0,0,1-4.5-.922,9.8,9.8,0,0,1-5.078-4.095,10.232,10.232,0,0,1-1.152-2.626,12.9,12.9,0,0,1-.267-5.491,13.876,13.876,0,0,1,.455-2.032,9.108,9.108,0,0,1,1.793-3.141,10.637,10.637,0,0,1,3.068-2.418,12.562,12.562,0,0,1,2.907-1.03,16.589,16.589,0,0,1,3.625-.435,18,18,0,0,1,2.661.1,13.093,13.093,0,0,1,5.6,1.793,9.829,9.829,0,0,1,3.979,4.805,12.294,12.294,0,0,1,.7,3.682,11.529,11.529,0,0,1-1.482,6.68,8.756,8.756,0,0,1-2.109,2.478,11.809,11.809,0,0,1-4.112,2.071,22.927,22.927,0,0,1-4.691.688m-2.947-11.485c0,.98-.032,1.961.01,2.939a5.516,5.516,0,0,0,.576,2.384,2.013,2.013,0,0,0,1.658,1.2,6.882,6.882,0,0,0,1.18,0,1.739,1.739,0,0,0,1.48-.763,5.132,5.132,0,0,0,.619-1.422,14.526,14.526,0,0,0,.293-2.394,26.552,26.552,0,0,0-.1-4.582,5.94,5.94,0,0,0-.582-2.129,2.038,2.038,0,0,0-1.722-1.186,7.867,7.867,0,0,0-.933-.019,2.1,2.1,0,0,0-1.879,1.23,6.3,6.3,0,0,0-.438,1.321,12.158,12.158,0,0,0-.161,3.421" transform="translate(-149.261 -94.998)" fill="#fff"/>
          <path id="Trazado_598952" data-name="Trazado 598952" d="M97.644,143.065v1.278H93c-.01-.177-.028-.356-.028-.534-.006-2.31-.006-4.62-.017-6.93,0-.222.069-.282.283-.28q2.035.015,4.07.006c.259,0,.356.09.412.347a4.373,4.373,0,0,0,1.115,1.915,4.236,4.236,0,0,0,1.068.8,3.389,3.389,0,0,0,1.851.514c.439-.008.878-.025,1.315-.055a1.141,1.141,0,0,0,.391-.117,1.26,1.26,0,0,0,.75-1.685,1,1,0,0,0-.567-.672c-.605-.256-1.21-.522-1.835-.719-1.229-.388-2.48-.707-3.708-1.1a8.248,8.248,0,0,1-3.244-1.791,6.083,6.083,0,0,1-.753-8.346,6.927,6.927,0,0,1,1.945-1.594,9.25,9.25,0,0,1,2.8-1,11.981,11.981,0,0,1,4.518,0,17.149,17.149,0,0,1,2.024.463c.6.189,1.163.486,1.745.732.133.056.273.1.49.174,0-.247-.008-.449,0-.651.033-.7-.145-.674.687-.683,1.118-.012,2.237-.005,3.355,0,.528,0,.522.011.522.534q0,3.451,0,6.9c0,.062-.011.123-.018.205h-1.106c-1.063,0-2.126,0-3.189.006-.238,0-.328-.107-.384-.33a4.012,4.012,0,0,0-1.974-2.556,4.138,4.138,0,0,0-2.473-.592,3.2,3.2,0,0,0-1.413.407,1.27,1.27,0,0,0-.441,1.235,1.763,1.763,0,0,0,1.24,1.207c.787.287,1.609.479,2.409.734,1.132.361,2.261.731,3.383,1.122a7.11,7.11,0,0,1,1.3.583,7.286,7.286,0,0,1,1.49,1.06,6.187,6.187,0,0,1,1.372,2.1,6.914,6.914,0,0,1,.163,4.551,5.094,5.094,0,0,1-1.564,2.217,7.657,7.657,0,0,1-3.234,1.675,13.8,13.8,0,0,1-3.34.446,12.288,12.288,0,0,1-2.705-.186,14.935,14.935,0,0,1-3.57-1.222,5.23,5.23,0,0,0-.5-.168" transform="translate(-72.387 -95.849)" fill="#fff"/>
          <path id="Trazado_598953" data-name="Trazado 598953" d="M26.562,145.234c-.013-.189-.035-.361-.035-.533,0-1.457,0-2.915,0-4.372,0-.22.041-.322.294-.335a4.453,4.453,0,0,0,1.112-.162,1.165,1.165,0,0,0,.871-.855,10.953,10.953,0,0,0,.171-2.679c0-1.475.027-2.951,0-4.426a7.078,7.078,0,0,0-.226-1.787,1.254,1.254,0,0,0-.709-.624,4.944,4.944,0,0,0-1.18-.23c-.2-.029-.311-.106-.312-.323,0-1.558-.016-3.116-.013-4.674,0-.067.113-.171.191-.192a1.706,1.706,0,0,1,.437-.031q6.064,0,12.128,0c.367,0,.367,0,.366.361q-.005,2.2-.01,4.4c0,.426,0,.4-.412.468a7.676,7.676,0,0,0-1.2.275.961.961,0,0,0-.661.956q-.028,4.07-.007,8.141c0,.779.427,1.187,1.247,1.281.273.031.543.084.816.109a.2.2,0,0,1,.213.224c0,.092.013.183.012.275q-.008,2.173-.018,4.345c0,.385-.006.386-.376.386h-12.7Z" transform="translate(-20.688 -96.726)" fill="#fff"/>
        </g>
      </g>
    </g>
  </g>
</svg>
